<?xml version="1.0" encoding="utf-8"?>
<!-- Generator: Adobe Illustrator 27.5.0, SVG Export Plug-In . SVG Version: 6.00 Build 0)  -->
<svg version="1.1" id="Layer_1" xmlns="http://www.w3.org/2000/svg" xmlns:xlink="http://www.w3.org/1999/xlink" x="0px" y="0px"
	 viewBox="0 0 6000 4000" style="enable-background:new 0 0 6000 4000;" xml:space="preserve">
<rect style="fill-rule:evenodd;clip-rule:evenodd;fill:#FEFFEB;" width="6000" height="4000"/>
<polygon style="fill-rule:evenodd;clip-rule:evenodd;fill:#1A85F8;" points="1630.534,3840 1700.004,4000 6000,4000 6000,3840 "/>
<polygon style="fill-rule:evenodd;clip-rule:evenodd;fill:#1A85F8;" points="1489.709,3792.042 1321.666,3405 0,3405 0,4000 
	1580,4000 "/>
<polygon style="fill-rule:evenodd;clip-rule:evenodd;fill:#FFCF4B;" points="1950,3405 1441.666,3405 1590.337,3747.418 
	2098.672,3747.418 "/>
<polygon style="fill-rule:evenodd;clip-rule:evenodd;fill:#FFCF4B;" points="2576.33,3405 2067.995,3405 2216.666,3747.418 
	2725.001,3747.418 "/>
<polygon style="fill-rule:evenodd;clip-rule:evenodd;fill:#FFCF4B;" points="3202.659,3405 2694.324,3405 2842.995,3747.418 
	3351.33,3747.418 "/>
<polygon style="fill-rule:evenodd;clip-rule:evenodd;fill:#FFFFFF;" points="3399.194,3587.417 6000,3587.417 6000,3747.418 
	3467.573,3747.418 "/>
<polygon style="fill-rule:evenodd;clip-rule:evenodd;fill:#FFCF4B;" points="6000,3587.417 3399.194,3587.417 3467.573,3747.418 
	6000,3747.418 "/>
<polygon style="fill-rule:evenodd;clip-rule:evenodd;fill:#15B0F8;" points="0,2995 702.501,2995 1138.845,4000 0,4000 "/>
<polygon style="fill-rule:evenodd;clip-rule:evenodd;fill:#F9B32F;" points="2098.672,3747.418 2024.335,3576.209 
	1516.002,3576.209 1590.337,3747.418 "/>
<polygon style="fill-rule:evenodd;clip-rule:evenodd;fill:#F9B32F;" points="2142.33,3576.209 2216.666,3747.418 2725.001,3747.418 
	2650.665,3576.209 "/>
<polygon style="fill-rule:evenodd;clip-rule:evenodd;fill:#F9B32F;" points="2768.659,3576.209 2842.995,3747.418 3351.33,3747.418 
	3276.994,3576.209 "/>
<polygon style="fill-rule:evenodd;clip-rule:evenodd;fill:#F9B32F;" points="3433.384,3667.417 3467.573,3747.418 6000,3747.418 
	6000,3667.417 "/>
<polygon style="fill-rule:evenodd;clip-rule:evenodd;fill:#0276DB;" points="924.119,3405 880.512,3405 1138.845,4000 
	1182.453,4000 "/>
<polygon style="fill-rule:evenodd;clip-rule:evenodd;fill:#1A85F8;" points="4369.465,160.001 4299.997,0 0,0 0,160.001 "/>
<polygon style="fill-rule:evenodd;clip-rule:evenodd;fill:#1A85F8;" points="4510.291,207.958 4678.334,595.001 6000,595.001 
	6000,0 4420,0 "/>
<polygon style="fill-rule:evenodd;clip-rule:evenodd;fill:#FFCF4B;" points="4050,595.001 4558.334,595.001 4409.663,252.582 
	3901.328,252.582 "/>
<polygon style="fill-rule:evenodd;clip-rule:evenodd;fill:#FFCF4B;" points="3423.67,595.001 3932.005,595.001 3783.333,252.582 
	3274.999,252.582 "/>
<polygon style="fill-rule:evenodd;clip-rule:evenodd;fill:#FFCF4B;" points="2797.341,595.001 3305.676,595.001 3157.004,252.582 
	2648.67,252.582 "/>
<polygon style="fill-rule:evenodd;clip-rule:evenodd;fill:#FFFFFF;" points="2600.805,412.583 0,412.583 0,252.582 
	2532.427,252.582 "/>
<polygon style="fill-rule:evenodd;clip-rule:evenodd;fill:#FFCF4B;" points="0,412.583 2600.805,412.583 2532.427,252.582 
	0,252.582 "/>
<polygon style="fill-rule:evenodd;clip-rule:evenodd;fill:#15B0F8;" points="6000,1005 5297.499,1005 4861.154,0 6000,0 "/>
<polygon style="fill-rule:evenodd;clip-rule:evenodd;fill:#F9B32F;" points="3901.328,252.582 3975.664,423.791 4483.998,423.791 
	4409.663,252.582 "/>
<polygon style="fill-rule:evenodd;clip-rule:evenodd;fill:#F9B32F;" points="3857.67,423.791 3783.333,252.582 3274.999,252.582 
	3349.335,423.791 "/>
<polygon style="fill-rule:evenodd;clip-rule:evenodd;fill:#F9B32F;" points="3231.341,423.791 3157.004,252.582 2648.67,252.582 
	2723.006,423.791 "/>
<polygon style="fill-rule:evenodd;clip-rule:evenodd;fill:#F9B32F;" points="2566.616,332.583 2532.427,252.582 0,252.582 
	0,332.583 "/>
<polygon style="fill-rule:evenodd;clip-rule:evenodd;fill:#0276DB;" points="5075.88,595.001 5119.488,595.001 4861.154,0 
	4817.547,0 "/>
</svg>
